<svg width="65" height="65" viewBox="0 0 65 65" fill="none" xmlns="http://www.w3.org/2000/svg">
<path fill-rule="evenodd" clip-rule="evenodd" d="M35.0654 5.20155L34.1165 4.5947C33.1311 3.96452 31.8693 3.96452 30.8839 4.5947L29.935 5.20154C28.0978 6.37645 25.8966 6.84435 23.7404 6.51826L22.6267 6.34984C21.4701 6.17494 20.3174 6.68816 19.6735 7.66465L19.0535 8.60498C17.853 10.4256 16.0324 11.7484 13.9299 12.3275L12.844 12.6266C11.7164 12.9372 10.872 13.8749 10.681 15.0289L10.497 16.1401C10.1409 18.2916 9.01563 20.2405 7.33051 21.6247L6.46014 22.3397C5.5563 23.0821 5.16638 24.2821 5.46121 25.414L5.74512 26.504C6.29481 28.6143 6.05957 30.8525 5.08314 32.8024L4.57881 33.8095C4.05509 34.8554 4.18698 36.1103 4.91671 37.0244L5.61941 37.9047C6.97992 39.609 7.67535 41.7493 7.57644 43.9278L7.52535 45.053C7.47229 46.2214 8.1032 47.3142 9.14164 47.8525L10.1416 48.3708C12.0777 49.3744 13.5836 51.0468 14.3793 53.0772L14.7903 54.1259C15.2171 55.2149 16.2379 55.9566 17.4055 56.026L18.5299 56.0928C20.7068 56.2221 22.7627 57.1375 24.3154 58.6687L25.1174 59.4595C25.9502 60.2808 27.1845 60.5432 28.2794 60.1316L29.3337 59.7354C31.375 58.9681 33.6254 58.9681 35.6667 59.7354L36.7211 60.1316C37.816 60.5432 39.0502 60.2808 39.883 59.4595L40.685 58.6687C42.2378 57.1375 44.2937 56.2221 46.4706 56.0928L47.5949 56.026C48.7626 55.9566 49.7834 55.2149 50.2102 54.1259L50.6212 53.0772C51.4169 51.0468 52.9227 49.3744 54.8588 48.3708L55.8588 47.8525C56.8972 47.3142 57.5281 46.2214 57.4751 45.053L57.424 43.9278C57.3251 41.7493 58.0205 39.609 59.381 37.9047L60.0837 37.0244C60.8135 36.1103 60.9454 34.8554 60.4216 33.8095L59.9173 32.8024C58.9409 30.8525 58.7056 28.6144 59.2553 26.504L59.5392 25.414C59.8341 24.2821 59.4441 23.0821 58.5403 22.3397L57.6699 21.6247C55.9848 20.2405 54.8596 18.2916 54.5034 16.1401L54.3194 15.0289C54.1284 13.8749 53.2841 12.9372 52.1564 12.6266L51.0705 12.3275C48.9681 11.7484 47.1474 10.4256 45.9469 8.60498L45.3269 7.66465C44.683 6.68816 43.5303 6.17494 42.3738 6.34984L41.2601 6.51826C39.1039 6.84435 36.9026 6.37645 35.0654 5.20155ZM35.7328 2.06734C33.762 0.806981 31.2384 0.806979 29.2676 2.06734L28.3187 2.67418C27.0939 3.45745 25.6264 3.76938 24.1889 3.55199L23.0753 3.38357C20.7622 3.03376 18.4568 4.06021 17.169 6.0132L16.549 6.95353C15.7487 8.16725 14.5349 9.0491 13.1333 9.43518L12.0474 9.7343C9.79201 10.3556 8.10338 12.231 7.72129 14.5389L7.53732 15.6501C7.29987 17.0844 6.54972 18.3837 5.4263 19.3065L4.55594 20.0215C2.74826 21.5063 1.96842 23.9064 2.55808 26.1702L2.84199 27.2602C3.20845 28.6671 3.05162 30.1592 2.40067 31.4591L1.89634 32.4663C0.848893 34.558 1.11268 37.0678 2.57214 38.896L3.27484 39.7763C4.18185 40.9125 4.64547 42.3394 4.57952 43.7917L4.52843 44.9169C4.42233 47.2538 5.68413 49.4394 7.76103 50.5159L8.76102 51.0343C10.0517 51.7033 11.0556 52.8183 11.5861 54.1719L11.9971 55.2206C12.8507 57.3986 14.8923 58.882 17.2276 59.0207L18.3519 59.0875C19.8032 59.1737 21.1738 59.784 22.209 60.8048L23.0109 61.5956C24.6766 63.2382 27.1451 63.7629 29.3349 62.9398L30.3892 62.5435C31.7501 62.032 33.2504 62.032 34.6112 62.5435L35.6656 62.9398C37.8553 63.7629 40.3238 63.2382 41.9895 61.5956L42.7915 60.8048C43.8266 59.784 45.1972 59.1737 46.6485 59.0875L47.7729 59.0207C50.1081 58.882 52.1497 57.3986 53.0033 55.2206L53.4143 54.1719C53.9448 52.8183 54.9487 51.7033 56.2394 51.0343L57.2394 50.5159C59.3163 49.4394 60.5781 47.2538 60.472 44.9169L60.4209 43.7917C60.355 42.3394 60.8186 40.9125 61.7256 39.7763L62.4283 38.896C63.8878 37.0678 64.1515 34.558 63.1041 32.4663L62.5998 31.4591C61.9488 30.1592 61.792 28.6671 62.1584 27.2602L62.4424 26.1702C63.032 23.9064 62.2522 21.5063 60.4445 20.0215L59.5741 19.3065C58.4507 18.3837 57.7006 17.0844 57.4631 15.6501L57.2791 14.5389C56.8971 12.231 55.2084 10.3556 52.9531 9.7343L51.8672 9.43518C50.4656 9.0491 49.2518 8.16725 48.4515 6.95353L47.8314 6.0132C46.5437 4.06021 44.2382 3.03376 41.9252 3.38357L40.8115 3.55199C39.374 3.76938 37.9065 3.45745 36.6817 2.67418L35.7328 2.06734Z" fill="#624BFF"/>
<path fill-rule="evenodd" clip-rule="evenodd" d="M40.2969 20.7534C41.0133 21.1694 41.2568 22.0874 40.8408 22.8038L27.3472 46.0428C26.9313 46.7592 26.0133 47.0027 25.2969 46.5867C24.5804 46.1708 24.3369 45.2528 24.7529 44.5364L38.2465 21.2974C38.6625 20.581 39.5804 20.3374 40.2969 20.7534Z" fill="#624BFF"/>
<path fill-rule="evenodd" clip-rule="evenodd" d="M26 25.3335C24.6193 25.3335 23.5 26.4528 23.5 27.8335C23.5 29.2142 24.6193 30.3335 26 30.3335C27.3807 30.3335 28.5 29.2142 28.5 27.8335C28.5 26.4528 27.3807 25.3335 26 25.3335ZM20.5 27.8335C20.5 24.7959 22.9624 22.3335 26 22.3335C29.0376 22.3335 31.5 24.7959 31.5 27.8335C31.5 30.8711 29.0376 33.3335 26 33.3335C22.9624 33.3335 20.5 30.8711 20.5 27.8335Z" fill="#624BFF"/>
<path fill-rule="evenodd" clip-rule="evenodd" d="M40 36.3335C38.7805 36.3335 37.5 37.5057 37.5 39.3335C37.5 41.1613 38.7805 42.3335 40 42.3335C41.2195 42.3335 42.5 41.1613 42.5 39.3335C42.5 37.5057 41.2195 36.3335 40 36.3335ZM34.5 39.3335C34.5 36.1908 36.8012 33.3335 40 33.3335C43.1988 33.3335 45.5 36.1908 45.5 39.3335C45.5 42.4762 43.1988 45.3335 40 45.3335C36.8012 45.3335 34.5 42.4762 34.5 39.3335Z" fill="#624BFF"/>
</svg>
