<svg width="38" height="58" viewBox="0 0 38 58" fill="none" xmlns="http://www.w3.org/2000/svg">
<g clip-path="url(#clip0)">
<path fill-rule="evenodd" clip-rule="evenodd" d="M9 33C9.82843 33 10.5 33.6716 10.5 34.5V54.1801L17.5 51.0301V37C17.5 36.1716 18.1716 35.5 19 35.5C19.8284 35.5 20.5 36.1716 20.5 37V51.0301L27.5 54.1801V34.5C27.5 33.6716 28.1716 33 29 33C29.8284 33 30.5 33.6716 30.5 34.5V56.5C30.5 57.009 30.2419 57.4833 29.8145 57.7596C29.387 58.036 28.8486 58.0768 28.3845 57.8679L19 53.6449L9.61555 57.8679C9.15139 58.0768 8.61297 58.036 8.18554 57.7596C7.75812 57.4833 7.5 57.009 7.5 56.5V34.5C7.5 33.6716 8.17157 33 9 33Z" fill="#624BFF"/>
<path fill-rule="evenodd" clip-rule="evenodd" d="M19 35C27.8366 35 35 27.8366 35 19C35 10.1634 27.8366 3 19 3C10.1634 3 3 10.1634 3 19C3 27.8366 10.1634 35 19 35ZM19 38C29.4934 38 38 29.4934 38 19C38 8.50659 29.4934 0 19 0C8.50659 0 0 8.50659 0 19C0 29.4934 8.50659 38 19 38Z" fill="#624BFF"/>
<path d="M18.5247 12.4636C18.6744 12.003 19.3261 12.003 19.4758 12.4636L20.6841 16.1825C20.751 16.3885 20.943 16.528 21.1596 16.528H25.0699C25.5542 16.528 25.7556 17.1478 25.3638 17.4325L22.2003 19.7308C22.0251 19.8582 21.9517 20.0839 22.0187 20.2899L23.227 24.0087C23.3767 24.4694 22.8494 24.8524 22.4576 24.5677L19.2941 22.2694C19.1189 22.142 18.8816 22.142 18.7064 22.2694L15.5429 24.5677C15.1511 24.8524 14.6238 24.4694 14.7735 24.0087L15.9818 20.2899C16.0488 20.0839 15.9754 19.8582 15.8002 19.7308L12.6367 17.4325C12.2449 17.1478 12.4463 16.528 12.9306 16.528H16.8409C17.0575 16.528 17.2495 16.3885 17.3164 16.1825L18.5247 12.4636Z" fill="#624BFF"/>
</g>
<defs>
<clipPath id="clip0">
<rect width="38" height="58" fill="white"/>
</clipPath>
</defs>
</svg>
