<svg width="58" height="52" viewBox="0 0 58 52" fill="none" xmlns="http://www.w3.org/2000/svg">
<path fill-rule="evenodd" clip-rule="evenodd" d="M53 10H5C3.89543 10 3 10.8954 3 12V47C3 48.1046 3.89543 49 5 49H53C54.1046 49 55 48.1046 55 47V12C55 10.8954 54.1046 10 53 10ZM5 7C2.23858 7 0 9.23858 0 12V47C0 49.7614 2.23858 52 5 52H53C55.7614 52 58 49.7614 58 47V12C58 9.23858 55.7614 7 53 7H5Z" fill="#624BFF"/>
<path fill-rule="evenodd" clip-rule="evenodd" d="M25 3C23.067 3 21.5 4.567 21.5 6.5V8.5H18.5V6.5C18.5 2.91015 21.4101 0 25 0H33C36.5899 0 39.5 2.91015 39.5 6.5V8.5H36.5V6.5C36.5 4.567 34.933 3 33 3H25Z" fill="#624BFF"/>
<path fill-rule="evenodd" clip-rule="evenodd" d="M43.632 10H14.119C10.8064 10 8.65904 10.0078 7.13438 10.2319C5.70897 10.4414 5.49032 10.7539 5.43092 10.8387C5.4296 10.8406 5.42836 10.8424 5.42719 10.8441C5.42601 10.8457 5.42475 10.8475 5.42341 10.8494C5.36306 10.9336 5.14088 11.2435 5.41633 12.6577C5.71096 14.1703 6.41637 16.1985 7.51585 19.3233L9.97881 26.3233C10.5693 28.0016 10.9337 29.0238 11.2891 29.7581C11.6113 30.4237 11.7983 30.5708 11.8848 30.6321C11.9714 30.6934 12.1722 30.821 12.907 30.904C13.7177 30.9956 14.8029 31 16.582 31H41.0394C42.7897 31 43.8563 30.9957 44.6538 30.9065C45.3763 30.8258 45.5757 30.7016 45.662 30.6415C45.7483 30.5815 45.934 30.4376 46.2607 29.7881C46.6213 29.0712 46.9958 28.0726 47.6037 26.4312L50.1963 19.4312C51.3643 16.2775 52.1156 14.2266 52.4396 12.695C52.7427 11.2617 52.5201 10.9464 52.4612 10.863C52.4598 10.861 52.4585 10.8592 52.4573 10.8575C52.4561 10.8557 52.4549 10.8539 52.4535 10.8519C52.3957 10.7677 52.1774 10.4494 50.728 10.2359C49.1793 10.0078 46.9951 10 43.632 10ZM2.97901 9.11016C1.4845 11.2203 2.55164 14.2532 4.68591 20.3191L7.14888 27.3191C8.28454 30.5468 8.85238 32.1606 10.1509 33.0803C11.4495 34 13.1603 34 16.582 34H41.0394C44.4053 34 46.0882 34 47.3758 33.1038C48.6634 32.2077 49.2479 30.6295 50.4169 27.4731L53.0095 20.4731C55.2776 14.3493 56.4117 11.2874 54.9196 9.14368C53.4276 7 50.1624 7 43.632 7H14.119C7.68869 7 4.47351 7 2.97901 9.11016Z" fill="#624BFF"/>
<path d="M33 31C33 30.4747 32.8965 29.9546 32.6955 29.4693C32.4945 28.984 32.1999 28.543 31.8284 28.1716C31.457 27.8001 31.016 27.5055 30.5307 27.3045C30.0454 27.1035 29.5253 27 29 27C28.4747 27 27.9546 27.1035 27.4693 27.3045C26.984 27.5055 26.543 27.8001 26.1716 28.1716C25.8001 28.543 25.5055 28.984 25.3045 29.4693C25.1035 29.9546 25 30.4747 25 31H29H33Z" fill="#624BFF"/>
<path d="M27 33H31V37H27V33Z" fill="#624BFF"/>
</svg>
