<svg width="66" height="76" viewBox="0 0 66 76" fill="none" xmlns="http://www.w3.org/2000/svg">
<path fill-rule="evenodd" clip-rule="evenodd" d="M35.3769 3.64467C34.2172 2.83285 32.6816 2.79864 31.4887 3.55775L31.2566 3.70547C30.1957 4.38056 29.5785 5.57286 29.6398 6.82882L30.3847 22.1005C30.4783 24.0177 29.7196 25.8783 28.3121 27.1834L4.12021 49.6159C3.40594 50.2782 3 51.2082 3 52.1823V52.4999C3 53.3283 3.67157 53.9999 4.5 53.9999H6.35459C7.10272 53.9999 7.83115 53.7602 8.43307 53.3159L25.0769 41.0312C27.335 39.3645 30.538 40.9002 30.6525 43.7045L31.441 63.0244C31.4959 64.3677 30.9472 65.6651 29.9453 66.5616L24.426 71.4999H25.1016L25.1632 71.4647C27.57 70.0894 30.5849 70.3935 32.67 72.2179C32.8592 72.3835 33.1415 72.3829 33.3293 72.2186L33.6348 71.9513C35.5226 70.2994 38.1925 69.8813 40.495 70.877L41.9354 71.4999H42.074L36.5547 66.5616C35.5528 65.6651 35.0041 64.3677 35.059 63.0244L35.8454 43.7576C35.9606 40.9349 39.2 39.4047 41.4533 41.1085L57.5666 53.2917C58.1744 53.7512 58.9155 53.9999 59.6775 53.9999H61C61.8284 53.9999 62.5 53.3283 62.5 52.4999V52.1275C62.5 51.1759 62.1125 50.2653 61.4268 49.6055L38.0978 27.1568C36.7449 25.855 36.0211 24.0317 36.1125 22.1564L36.8673 6.68369C36.9259 5.48324 36.3626 4.33468 35.3769 3.64467ZM29.8781 1.02677C32.0955 -0.384322 34.9455 -0.319298 37.0973 1.18698C38.9263 2.46731 39.9726 4.59852 39.8637 6.82986L39.109 22.3026C39.0597 23.3124 39.4495 24.2941 40.178 24.9951L43.2273 27.9294V26.9999C43.2273 26.1715 43.8988 25.4999 44.7273 25.4999C45.5557 25.4999 46.2273 26.1715 46.2273 26.9999V30.8161L52.8636 37.2021V35.9999C52.8636 35.1715 53.5352 34.4999 54.3636 34.4999C55.1921 34.4999 55.8636 35.1715 55.8636 35.9999V40.0889L63.507 47.4438C64.7804 48.6692 65.5 50.3602 65.5 52.1275V52.4999C65.5 54.9852 63.4853 56.9999 61 56.9999H59.6775C58.2624 56.9999 56.886 56.5381 55.7573 55.6847L39.644 43.5015C39.3221 43.2581 38.8593 43.4767 38.8429 43.8799L38.0565 63.1468C38.0382 63.5946 38.2211 64.027 38.555 64.3258L45.0496 70.1368C46.7598 71.6669 45.6774 74.4999 43.3826 74.4999H41.625C41.4202 74.4999 41.2176 74.458 41.0296 74.3767L39.3042 73.6306C38.0645 73.0944 36.6268 73.3196 35.6103 74.209L35.3048 74.4764C33.9844 75.6317 32.0133 75.6297 30.6945 74.4757C29.5709 73.4925 27.9466 73.3295 26.6516 74.0694L26.2442 74.3023C26.0176 74.4318 25.761 74.4999 25.5 74.4999H23.1174C20.8226 74.4999 19.7402 71.6669 21.4504 70.1368L27.945 64.3258C28.2789 64.027 28.4618 63.5946 28.4435 63.1468L27.655 43.8268C27.6386 43.4262 27.181 43.2068 26.8584 43.4449L10.2146 55.7296C9.09678 56.5547 7.74396 56.9999 6.35459 56.9999H4.5C2.01472 56.9999 0 54.9852 0 52.4999V52.1823C0 50.3733 0.753892 48.6461 2.08039 47.4161L10 40.0724V35.9999C10 35.1715 10.6716 34.4999 11.5 34.4999C12.3284 34.4999 13 35.1715 13 35.9999V37.2906L20 30.7997V26.9999C20 26.1715 20.6716 25.4999 21.5 25.4999C22.3284 25.4999 23 26.1715 23 26.9999V28.0179L26.2722 24.9836C27.0301 24.2808 27.4387 23.279 27.3883 22.2466L26.6433 6.97499C26.5296 4.6425 27.6758 2.42823 29.6459 1.17449L29.8781 1.02677Z" fill="#624BFF"/>
</svg>
