<svg width="66" height="60" viewBox="0 0 66 60" fill="none" xmlns="http://www.w3.org/2000/svg">
<path fill-rule="evenodd" clip-rule="evenodd" d="M21.7499 1.1835C23.7735 1.81486 25.8499 3.22826 27.5607 4.93921C29.7361 7.11494 31.8341 10.7126 33.8111 14.2715C34.0934 14.7797 34.0566 15.4053 33.7167 15.877C33.3767 16.3486 32.7948 16.5814 32.2234 16.4742C31.8411 16.4025 31.3024 16.3194 30.668 16.2216C29.435 16.0313 27.8404 15.7853 26.3286 15.4589C23.9514 14.9455 21.2682 14.1483 19.1678 12.7479C17.4858 11.6265 16.0143 10.0446 15.2495 8.28539C14.4681 6.488 14.39 4.36158 15.8287 2.5629C17.3783 0.625499 19.7322 0.554004 21.7499 1.1835ZM20.8564 4.04735C19.4218 3.59979 18.6214 3.87418 18.1714 4.4368C17.6105 5.13813 17.5323 6.01171 18.0008 7.08931C18.4859 8.20512 19.514 9.37311 20.8319 10.2518C22.4524 11.3322 24.6859 12.035 26.9618 12.5265C27.9339 12.7364 28.8291 12.8937 29.6536 13.0264C28.1941 10.5336 26.795 8.41633 25.4392 7.06041L26.4999 5.99981L25.4392 7.0604C23.9586 5.57962 22.2849 4.49304 20.8564 4.04735Z" fill="#624BFF"/>
<path fill-rule="evenodd" clip-rule="evenodd" d="M44.234 0.861879C42.1399 1.50468 39.9839 2.9467 38.2037 4.69842C35.9409 6.92497 33.7561 10.6102 31.6938 14.2626C31.4075 14.7698 31.4406 15.397 31.7789 15.8712C32.1171 16.3454 32.6993 16.5809 33.2721 16.4752C33.6761 16.4007 34.2409 16.315 34.9045 16.2143C36.1879 16.0196 37.841 15.7687 39.4161 15.4341C41.891 14.9082 44.6771 14.093 46.8558 12.6639C48.6006 11.5194 50.129 9.90345 50.9237 8.10498C51.7368 6.26484 51.8155 4.09059 50.3247 2.25687C48.7308 0.296311 46.317 0.222486 44.234 0.861879ZM45.1144 3.72981C46.6308 3.26434 47.5058 3.54533 47.9969 4.14933C48.591 4.88018 48.6697 5.78339 48.1796 6.89246C47.6712 8.04321 46.5933 9.24825 45.2104 10.1554C43.5094 11.2711 41.1691 11.9947 38.7926 12.4996C37.7348 12.7243 36.761 12.8909 35.8678 13.0312C37.4041 10.4446 38.8781 8.24356 40.3078 6.8368L39.2693 5.78137L40.3078 6.83679C41.855 5.31438 43.6091 4.19187 45.1144 3.72981Z" fill="#624BFF"/>
<path fill-rule="evenodd" clip-rule="evenodd" d="M3 17V21H63V17H3ZM2 14C0.895431 14 0 14.8954 0 16V22C0 23.1046 0.895429 24 2 24H64C65.1046 24 66 23.1046 66 22V16C66 14.8954 65.1046 14 64 14H2Z" fill="#624BFF"/>
<path fill-rule="evenodd" clip-rule="evenodd" d="M60 24H6V57H60V24ZM3 21V58C3 59.1046 3.89543 60 5 60H61C62.1046 60 63 59.1046 63 58V21H3Z" fill="#624BFF"/>
<path fill-rule="evenodd" clip-rule="evenodd" d="M34.5 15.5V59H31.5V15.5H34.5Z" fill="#624BFF"/>
</svg>
