<svg width="57" height="63" viewBox="0 0 57 63" fill="none" xmlns="http://www.w3.org/2000/svg">
<path fill-rule="evenodd" clip-rule="evenodd" d="M3 17V53H32V17H3ZM2 14C0.895431 14 0 14.8954 0 16V54C0 55.1046 0.89543 56 2 56H33C34.1046 56 35 55.1046 35 54V16C35 14.8954 34.1046 14 33 14H2Z" fill="#624BFF"/>
<path fill-rule="evenodd" clip-rule="evenodd" d="M22.8475 3.54664C23.3451 1.67879 25.2627 0.567992 27.1306 1.0656L53.3207 8.04282C55.1886 8.54043 56.2994 10.458 55.8018 12.3259L43.4751 58.5963C42.9789 60.4586 41.0706 61.5694 39.2063 61.0811L19.6198 55.9513C18.8184 55.7414 18.3389 54.9216 18.5488 54.1202C18.7587 53.3188 19.5785 52.8393 20.3799 53.0492L39.9663 58.179C40.2327 58.2488 40.5053 58.0901 40.5762 57.824L52.9029 11.5536C52.974 11.2868 52.8153 11.0128 52.5485 10.9417L26.3583 3.96449C26.0915 3.8934 25.8175 4.05209 25.7464 4.31892L22.9312 14.8864C22.7179 15.6869 21.8961 16.1629 21.0956 15.9497C20.2951 15.7364 19.8191 14.9146 20.0323 14.1141L22.8475 3.54664ZM44.1209 13.5037C44.6713 14.1228 44.6155 15.071 43.9964 15.6213L41.2817 18.0343L45.0767 19.6156C45.8415 19.9342 46.2031 20.8124 45.8844 21.5771C45.5658 22.3418 44.6876 22.7035 43.9229 22.3848L40.1995 20.8334L40.4946 24.3756C40.5634 25.2012 39.95 25.9262 39.1244 25.995C38.2988 26.0638 37.5738 25.4504 37.505 24.6248L37.0839 19.5712L33.9731 18.4047C33.1975 18.1138 32.8045 17.2492 33.0953 16.4735C33.3862 15.6979 34.2508 15.3048 35.0265 15.5957L38.1794 16.7781L42.0033 13.3791C42.6225 12.8287 43.5706 12.8845 44.1209 13.5037Z" fill="#624BFF"/>
<path fill-rule="evenodd" clip-rule="evenodd" d="M17 39C21.9706 39 26 34.9706 26 30C26 25.0294 21.9706 21 17 21C12.0294 21 8 25.0294 8 30C8 34.9706 12.0294 39 17 39ZM17 41C23.0751 41 28 36.0751 28 30C28 23.9249 23.0751 19 17 19C10.9249 19 6 23.9249 6 30C6 36.0751 10.9249 41 17 41Z" fill="#624BFF"/>
<path fill-rule="evenodd" clip-rule="evenodd" d="M12 39V21H14V39H12Z" fill="#624BFF"/>
<path fill-rule="evenodd" clip-rule="evenodd" d="M20 39V21H22V39H20Z" fill="#624BFF"/>
<path fill-rule="evenodd" clip-rule="evenodd" d="M8 25H26V27H8V25Z" fill="#624BFF"/>
<path fill-rule="evenodd" clip-rule="evenodd" d="M8 33H26V35H8V33Z" fill="#624BFF"/>
<path fill-rule="evenodd" clip-rule="evenodd" d="M27 50H8V46H27V50Z" fill="#624BFF"/>
</svg>
