<svg width="50" height="46" viewBox="0 0 50 46" fill="none" xmlns="http://www.w3.org/2000/svg">
<path fill-rule="evenodd" clip-rule="evenodd" d="M9 2C6.23858 2 4 4.23858 4 7C4 9.76142 6.23858 12 9 12C11.7614 12 14 9.76142 14 7C14 4.23858 11.7614 2 9 2ZM2 7C2 3.13401 5.13401 0 9 0C12.866 0 16 3.13401 16 7C16 10.866 12.866 14 9 14C5.13401 14 2 10.866 2 7Z" fill="#624BFF"/>
<path fill-rule="evenodd" clip-rule="evenodd" d="M41.5 2C44.2614 2 46.5 4.23858 46.5 7C46.5 9.76142 44.2614 12 41.5 12C38.7386 12 36.5 9.76142 36.5 7C36.5 4.23858 38.7386 2 41.5 2ZM48.5 7C48.5 3.13401 45.366 0 41.5 0C37.634 0 34.5 3.13401 34.5 7C34.5 10.866 37.634 14 41.5 14C45.366 14 48.5 10.866 48.5 7Z" fill="#624BFF"/>
<path fill-rule="evenodd" clip-rule="evenodd" d="M2.5 23.6403V43.5H13.5V31C13.5 30.4477 13.9477 30 14.5 30C15.0523 30 15.5 30.4477 15.5 31V45.5H0.5V23.3661L0.535236 23.2369C0.821048 22.1889 1.51618 20.6638 2.70423 19.3826C3.90896 18.0833 5.65937 17 8 17C9.60445 17 13.1217 17.9193 15.3399 21.4571C15.978 22.4125 17.1364 23.9322 18.5172 25.3531C19.9237 26.8006 21.4642 28.0436 22.8511 28.5637C23.3682 28.7576 23.6302 29.334 23.4363 29.8511C23.2424 30.3682 22.666 30.6302 22.1489 30.4363C20.3358 29.7564 18.5429 28.2494 17.0828 26.7469C15.6026 25.2236 14.3648 23.6 13.6679 22.5547L13.6598 22.5425L13.652 22.53C11.8698 19.6784 9.06026 19 8 19C6.34063 19 5.09104 19.75 4.17077 20.7424C3.28136 21.7016 2.73624 22.854 2.5 23.6403Z" fill="#624BFF"/>
<path fill-rule="evenodd" clip-rule="evenodd" d="M48.0002 23.6403V43.5H37.0002V31C37.0002 30.4477 36.5525 30 36.0002 30C35.4479 30 35.0002 30.4477 35.0002 31V45.5H50.0002V23.3661L49.965 23.2369C49.6792 22.1889 48.984 20.6638 47.796 19.3826C46.5912 18.0833 44.8408 17 42.5002 17C40.8957 17 37.3785 17.9193 35.1603 21.4571C34.5222 22.4125 33.3638 23.9322 31.983 25.3531C30.5765 26.8006 29.036 28.0436 27.6491 28.5637C27.132 28.7576 26.87 29.334 27.0639 29.8511C27.2578 30.3682 27.8342 30.6302 28.3513 30.4363C30.1644 29.7564 31.9573 28.2494 33.4174 26.7469C34.8976 25.2236 36.1354 23.6 36.8323 22.5547L36.8404 22.5425L36.8482 22.53C38.6304 19.6784 41.4399 19 42.5002 19C44.1596 19 45.4092 19.75 46.3294 20.7424C47.2188 21.7016 47.764 22.854 48.0002 23.6403Z" fill="#624BFF"/>
</svg>
