<svg width="78" height="75" viewBox="0 0 78 75" fill="none" xmlns="http://www.w3.org/2000/svg">
<path fill-rule="evenodd" clip-rule="evenodd" d="M0.5 7C0.5 3.41015 3.41015 0.5 7 0.5H49C52.5899 0.5 55.5 3.41015 55.5 7V31C55.5 31.8284 54.8284 32.5 54 32.5C53.1716 32.5 52.5 31.8284 52.5 31V7C52.5 5.067 50.933 3.5 49 3.5H7C5.067 3.5 3.5 5.067 3.5 7V62C3.5 63.933 5.067 65.5 7 65.5H49C50.933 65.5 52.5 63.933 52.5 62V59C52.5 58.1716 53.1716 57.5 54 57.5C54.8284 57.5 55.5 58.1716 55.5 59V62C55.5 65.5899 52.5899 68.5 49 68.5H7C3.41015 68.5 0.5 65.5899 0.5 62V7Z" fill="#624BFF"/>
<path fill-rule="evenodd" clip-rule="evenodd" d="M20.8078 11.15C23.0291 10.0742 25.485 9.5 28 9.5C28.1836 9.5 28.367 9.50306 28.55 9.50916C31.4943 9.60726 34.3391 10.491 36.8 12.0425C37.83 12.6918 38.7927 13.4582 39.6673 14.3327C40.5418 15.2073 41.3082 16.17 41.9575 17.2C43.6054 19.8138 44.5 22.8608 44.5 26C44.5 26.8284 43.8284 27.5 43 27.5C42.1716 27.5 41.5 26.8284 41.5 26C41.5 23.9853 41.0496 22.0169 40.2046 20.2296L38.8953 21.2035C38.2306 21.698 37.2909 21.56 36.7965 20.8953C36.302 20.2306 36.44 19.2909 37.1047 18.7965L38.622 17.6678C38.2897 17.2442 37.9306 16.8387 37.5459 16.4541C37.2102 16.1184 36.8587 15.8022 36.4931 15.5063L35.8099 16.7308C35.4063 17.4543 34.4926 17.7135 33.7692 17.3099C33.0457 16.9063 32.7865 15.9926 33.1901 15.2692L33.961 13.8873C32.7166 13.2749 31.3808 12.8557 30 12.6489V14.5C30 15.3284 29.3284 16 28.5 16C27.6716 16 27 15.3284 27 14.5V12.5371C25.6782 12.6352 24.3867 12.9268 23.1643 13.3958L24.2793 15.2167C24.7118 15.9233 24.4898 16.8467 23.7833 17.2793C23.0767 17.7118 22.1533 17.4898 21.7207 16.7833L20.4937 14.7792C19.766 15.266 19.0823 15.8258 18.4541 16.4541C18.0694 16.8387 17.7103 17.2442 17.378 17.6678L18.8953 18.7965C19.56 19.2909 19.698 20.2306 19.2035 20.8953C18.7091 21.56 17.7694 21.698 17.1047 21.2035L15.7954 20.2296C14.9504 22.0169 14.5 23.9853 14.5 26C14.5 26.8284 13.8284 27.5 13 27.5C12.1716 27.5 11.5 26.8284 11.5 26C11.5 22.8608 12.3946 19.8138 14.0425 17.2C14.6918 16.17 15.4582 15.2073 16.3327 14.3327C17.512 13.1535 18.8515 12.1711 20.3 11.4068C20.4679 11.3183 20.6372 11.2326 20.8078 11.15Z" fill="#624BFF"/>
<path fill-rule="evenodd" clip-rule="evenodd" d="M35.3061 21.9083C35.6329 22.3535 35.537 22.9794 35.0918 23.3062L30.9314 26.3604C30.9764 26.5669 31 26.781 31 27.0001C31 28.657 29.6569 30.0001 28 30.0001C26.3431 30.0001 25 28.657 25 27.0001C25 25.3433 26.3431 24.0001 28 24.0001C28.709 24.0001 29.36 24.2463 29.8728 24.6565L33.9082 21.694C34.3534 21.3672 34.9793 21.4631 35.3061 21.9083ZM28 26.0001C27.4477 26.0001 27 26.4478 27 27.0001C27 27.5524 27.4477 28.0001 28 28.0001C28.5523 28.0001 29 27.5524 29 27.0001C29 26.8163 28.9513 26.6469 28.8668 26.5008C28.6924 26.1993 28.3689 26.0001 28 26.0001Z" fill="#624BFF"/>
<path fill-rule="evenodd" clip-rule="evenodd" d="M12 42.5C12 41.6716 12.6716 41 13.5 41H25.5C26.3284 41 27 41.6716 27 42.5C27 43.3284 26.3284 44 25.5 44H13.5C12.6716 44 12 43.3284 12 42.5Z" fill="#624BFF"/>
<path fill-rule="evenodd" clip-rule="evenodd" d="M12 49C12 48.1716 12.6716 47.5 13.5 47.5H22.5C23.3284 47.5 24 48.1716 24 49C24 49.8284 23.3284 50.5 22.5 50.5H13.5C12.6716 50.5 12 49.8284 12 49Z" fill="#624BFF"/>
<path fill-rule="evenodd" clip-rule="evenodd" d="M49 57C55.6274 57 61 51.6274 61 45C61 38.3726 55.6274 33 49 33C42.3726 33 37 38.3726 37 45C37 51.6274 42.3726 57 49 57ZM49 60C57.2843 60 64 53.2843 64 45C64 36.7157 57.2843 30 49 30C40.7157 30 34 36.7157 34 45C34 53.2843 40.7157 60 49 60Z" fill="#624BFF"/>
<path d="M47.0898 48.7617C47.0898 47.668 47.2227 46.7969 47.4883 46.1484C47.7539 45.5 48.2383 44.8633 48.9414 44.2383C49.6523 43.6055 50.125 43.0938 50.3594 42.7031C50.5938 42.3047 50.7109 41.8867 50.7109 41.4492C50.7109 40.1289 50.1016 39.4688 48.8828 39.4688C48.3047 39.4688 47.8398 39.6484 47.4883 40.0078C47.1445 40.3594 46.9648 40.8477 46.9492 41.4727H43.5508C43.5664 39.9805 44.0469 38.8125 44.9922 37.9688C45.9453 37.125 47.2422 36.7031 48.8828 36.7031C50.5391 36.7031 51.8242 37.1055 52.7383 37.9102C53.6523 38.707 54.1094 39.8359 54.1094 41.2969C54.1094 41.9609 53.9609 42.5898 53.6641 43.1836C53.3672 43.7695 52.8477 44.4219 52.1055 45.1406L51.1562 46.043C50.5625 46.6133 50.2227 47.2812 50.1367 48.0469L50.0898 48.7617H47.0898ZM46.75 52.3594C46.75 51.8359 46.9258 51.4062 47.2773 51.0703C47.6367 50.7266 48.0938 50.5547 48.6484 50.5547C49.2031 50.5547 49.6562 50.7266 50.0078 51.0703C50.3672 51.4062 50.5469 51.8359 50.5469 52.3594C50.5469 52.875 50.3711 53.3008 50.0195 53.6367C49.6758 53.9727 49.2188 54.1406 48.6484 54.1406C48.0781 54.1406 47.6172 53.9727 47.2656 53.6367C46.9219 53.3008 46.75 52.875 46.75 52.3594Z" fill="#624BFF"/>
<path fill-rule="evenodd" clip-rule="evenodd" d="M63.3831 57.1388C65.0986 56.362 67.189 56.7234 68.5395 58.1806L74.6574 64.7815C76.3468 66.6042 76.2387 69.4514 74.4159 71.1408C72.5931 72.8302 69.7459 72.7221 68.0565 70.8993L61.9387 64.2984C60.6262 62.8823 60.3986 60.8479 61.2171 59.2184L58.4629 56.5839L60.5365 54.416L63.3831 57.1388ZM66.3392 60.2199C65.7761 59.6123 64.827 59.5762 64.2194 60.1394C63.6119 60.7025 63.5758 61.6516 64.1389 62.2592L70.2568 68.86C70.82 69.4676 71.769 69.5037 72.3766 68.9405C72.9842 68.3774 73.0202 67.4283 72.4571 66.8207L66.3392 60.2199Z" fill="#624BFF"/>
</svg>
