<svg width="23" height="23" viewBox="0 0 23 23" fill="none" xmlns="http://www.w3.org/2000/svg">
<path d="M7.212 12.812C7.252 13.012 7.338 13.164 7.47 13.268C7.602 13.372 7.78 13.424 8.004 13.424C8.288 13.424 8.496 13.312 8.628 13.088C8.76 12.864 8.826 12.482 8.826 11.942C8.73 12.078 8.594 12.184 8.418 12.26C8.246 12.332 8.058 12.368 7.854 12.368C7.594 12.368 7.358 12.316 7.146 12.212C6.934 12.104 6.766 11.946 6.642 11.738C6.522 11.526 6.462 11.27 6.462 10.97C6.462 10.53 6.59 10.18 6.846 9.92C7.106 9.656 7.462 9.524 7.914 9.524C8.458 9.524 8.844 9.706 9.072 10.07C9.304 10.43 9.42 10.984 9.42 11.732C9.42 12.248 9.376 12.67 9.288 12.998C9.204 13.326 9.056 13.574 8.844 13.742C8.632 13.91 8.338 13.994 7.962 13.994C7.534 13.994 7.204 13.882 6.972 13.658C6.74 13.434 6.61 13.152 6.582 12.812H7.212ZM7.974 11.792C8.214 11.792 8.402 11.718 8.538 11.57C8.678 11.418 8.748 11.218 8.748 10.97C8.748 10.694 8.674 10.48 8.526 10.328C8.382 10.172 8.184 10.094 7.932 10.094C7.68 10.094 7.48 10.174 7.332 10.334C7.188 10.49 7.116 10.696 7.116 10.952C7.116 11.196 7.186 11.398 7.326 11.558C7.47 11.714 7.686 11.792 7.974 11.792ZM12.9886 10.214H10.9786V11.408C11.0626 11.296 11.1866 11.202 11.3506 11.126C11.5186 11.05 11.6966 11.012 11.8846 11.012C12.2206 11.012 12.4926 11.084 12.7006 11.228C12.9126 11.372 13.0626 11.554 13.1506 11.774C13.2426 11.994 13.2886 12.226 13.2886 12.47C13.2886 12.766 13.2306 13.03 13.1146 13.262C13.0026 13.49 12.8326 13.67 12.6046 13.802C12.3806 13.934 12.1046 14 11.7766 14C11.3406 14 10.9906 13.892 10.7266 13.676C10.4626 13.46 10.3046 13.174 10.2526 12.818H10.9186C10.9626 13.006 11.0606 13.156 11.2126 13.268C11.3646 13.376 11.5546 13.43 11.7826 13.43C12.0666 13.43 12.2786 13.344 12.4186 13.172C12.5626 13 12.6346 12.772 12.6346 12.488C12.6346 12.2 12.5626 11.98 12.4186 11.828C12.2746 11.672 12.0626 11.594 11.7826 11.594C11.5866 11.594 11.4206 11.644 11.2846 11.744C11.1526 11.84 11.0566 11.972 10.9966 12.14H10.3486V9.614H12.9886V10.214ZM13.8926 10.682C13.8926 10.39 13.9766 10.162 14.1446 9.998C14.3166 9.83 14.5366 9.746 14.8046 9.746C15.0726 9.746 15.2906 9.83 15.4586 9.998C15.6306 10.162 15.7166 10.39 15.7166 10.682C15.7166 10.974 15.6306 11.204 15.4586 11.372C15.2906 11.54 15.0726 11.624 14.8046 11.624C14.5366 11.624 14.3166 11.54 14.1446 11.372C13.9766 11.204 13.8926 10.974 13.8926 10.682ZM17.5526 9.824L15.1586 14H14.4866L16.8806 9.824H17.5526ZM14.8046 10.16C14.5526 10.16 14.4266 10.334 14.4266 10.682C14.4266 11.034 14.5526 11.21 14.8046 11.21C14.9246 11.21 15.0166 11.168 15.0806 11.084C15.1486 10.996 15.1826 10.862 15.1826 10.682C15.1826 10.334 15.0566 10.16 14.8046 10.16ZM16.3346 13.136C16.3346 12.844 16.4186 12.616 16.5866 12.452C16.7586 12.284 16.9786 12.2 17.2466 12.2C17.5106 12.2 17.7266 12.284 17.8946 12.452C18.0666 12.616 18.1526 12.844 18.1526 13.136C18.1526 13.428 18.0666 13.658 17.8946 13.826C17.7266 13.994 17.5106 14.078 17.2466 14.078C16.9786 14.078 16.7586 13.994 16.5866 13.826C16.4186 13.658 16.3346 13.428 16.3346 13.136ZM17.2406 12.614C16.9886 12.614 16.8626 12.788 16.8626 13.136C16.8626 13.484 16.9886 13.658 17.2406 13.658C17.4926 13.658 17.6186 13.484 17.6186 13.136C17.6186 12.788 17.4926 12.614 17.2406 12.614Z" fill="#1CA440"/>
<path d="M11.5 0C14.1606 3.17272e-08 16.7389 0.922522 18.7955 2.61038C20.8522 4.29824 22.26 6.647 22.779 9.25646C23.2981 11.8659 22.8963 14.5746 21.6421 16.9211C20.3879 19.2675 18.3589 21.1065 15.9009 22.1246C13.4428 23.1428 10.7077 23.2771 8.16172 22.5048C5.6157 21.7325 3.41624 20.1013 1.9381 17.8891C0.459956 15.6769 -0.205408 13.0206 0.055376 10.3728C0.31616 7.72503 1.48696 5.24959 3.36827 3.36827L5.68583 5.68583C4.34069 7.03097 3.50357 8.8009 3.31711 10.6941C3.13065 12.5872 3.60639 14.4864 4.66326 16.0682C5.72013 17.6499 7.29274 18.8162 9.11314 19.3684C10.9335 19.9206 12.8891 19.8246 14.6466 19.0966C16.4041 18.3686 17.8548 17.0537 18.7516 15.3761C19.6483 13.6984 19.9356 11.7616 19.5645 9.89587C19.1934 8.03011 18.1868 6.35075 16.7163 5.14394C15.2458 3.93712 13.4023 3.27752 11.5 3.27752V0Z" fill="#1CA440"/>
</svg>
