<svg width="50" height="50" viewBox="0 0 50 50" fill="none" xmlns="http://www.w3.org/2000/svg">
<g clip-path="url(#clip0)">
<path d="M47.596 25.8069H45.967C45.931 22.7059 44.438 19.8279 41.936 18.0069V13.3069C41.936 11.7499 40.669 10.4839 39.114 10.4839C35.774 10.4839 32.948 12.9089 32.374 16.1289H29.84V17.7419H33.841L33.891 16.9889C34.072 14.2459 36.367 12.0969 39.115 12.0969C39.781 12.0969 40.324 12.6399 40.324 13.3069V18.8619L40.685 19.1009C42.984 20.6239 44.357 23.1739 44.357 25.9249V27.4209H47.597C48.034 27.4209 48.388 27.7749 48.388 28.2119V36.3059C48.388 36.7439 48.034 37.0979 47.597 37.0979H44.191L44.02 37.6769C43.233 40.3569 41.164 42.4259 38.484 43.2129L37.905 43.3839V47.1739C37.905 47.3999 37.722 47.5809 37.497 47.5809H29.44C29.214 47.5809 29.032 47.3989 29.032 47.1739V43.5499H20.968V47.1739C20.968 47.3989 20.785 47.5809 20.56 47.5809H12.505C12.28 47.5809 12.097 47.3979 12.097 47.1739V42.8479L11.664 42.6209C8.946 41.2039 7.258 38.4249 7.258 35.3679V25.9249C7.258 21.9199 10.119 18.5279 14.061 17.8599L13.79 16.2689C9.071 17.0699 5.645 21.1309 5.645 25.9259V28.2289H4.69C4.78 27.9749 4.838 27.7059 4.838 27.4219C4.838 26.0879 3.753 25.0019 2.419 25.0019C2.135 25.0019 1.866 25.0599 1.612 25.1499V22.5819H0V27.4209C0 28.7549 1.085 29.8399 2.419 29.8399H5.645V35.3679C5.645 38.8609 7.487 42.0529 10.484 43.8099V47.1719C10.484 48.2869 11.391 49.1929 12.505 49.1929H20.56C21.675 49.1929 22.581 48.2869 22.581 47.1719V45.1609H27.42V47.1719C27.42 48.2859 28.326 49.1929 29.441 49.1929H37.496C38.61 49.1929 39.517 48.2869 39.517 47.1719V44.5679C42.253 43.5789 44.388 41.4429 45.378 38.7079H47.597C48.922 38.7079 50.001 37.6299 50.001 36.3039V28.2099C50 26.8859 48.921 25.8069 47.596 25.8069ZM1.613 27.4199C1.613 26.9749 1.975 26.6129 2.42 26.6129C2.865 26.6129 3.226 26.9739 3.226 27.4199C3.226 27.8629 2.864 28.2259 2.42 28.2259C1.976 28.2259 1.613 27.8629 1.613 27.4199Z" fill="#624BFF"/>
<path d="M21.774 21.7741C15.993 21.7741 11.29 17.0711 11.29 11.2901C11.29 5.50913 15.994 0.807129 21.774 0.807129C27.554 0.807129 32.257 5.51013 32.257 11.2911C32.257 17.0721 27.555 21.7741 21.774 21.7741Z" fill="#D5CFFF"/>
<path d="M28.2253 20.9683H15.3223V22.5813H28.2253V20.9683Z" fill="#624BFF"/>
<path d="M26.6126 9.67707V8.46807C26.6126 6.46707 24.9836 4.83907 22.9836 4.83907H22.5806V3.22607H20.9676V4.83907H20.5646C18.5636 4.83907 16.9356 6.46707 16.9356 8.46807C16.9356 10.4681 18.5636 12.0971 20.5646 12.0971H22.9836C24.0946 12.0971 24.9996 13.0021 24.9996 14.1131C24.9996 15.2241 24.0946 16.1291 22.9836 16.1291H20.5646C19.4536 16.1291 18.5476 15.2241 18.5476 14.1131V12.9041H16.9346V14.1131C16.9346 16.1141 18.5626 17.7421 20.5636 17.7421H20.9666V19.3551H22.5796V17.7421H22.9826C24.9826 17.7421 26.6116 16.1141 26.6116 14.1131C26.6116 12.1121 24.9826 10.4841 22.9826 10.4841H20.5636C19.4526 10.4841 18.5476 9.57907 18.5476 8.46807C18.5476 7.35707 19.4526 6.45207 20.5636 6.45207H22.9826C24.0946 6.45207 24.9996 7.35607 24.9996 8.46807V9.67707H26.6126Z" fill="#624BFF"/>
<path d="M33.7439 24.6289C33.7519 24.6159 34.5589 23.3869 36.2909 23.3869C37.9879 23.3869 38.8069 24.5829 38.8369 24.6289C38.9909 24.8689 39.2519 24.9999 39.5179 24.9999C39.6659 24.9999 39.8169 24.9589 39.9519 24.8729C40.3269 24.6329 40.4359 24.1339 40.1959 23.7579C40.1429 23.6769 38.8919 21.7739 36.2919 21.7739C33.6899 21.7739 32.4379 23.6769 32.3869 23.7579C32.1459 24.1329 32.2549 24.6319 32.6299 24.8729C33.0039 25.1119 33.5019 25.0039 33.7439 24.6289Z" fill="#624BFF"/>
</g>
<defs>
<clipPath id="clip0">
<rect width="50" height="50" fill="white"/>
</clipPath>
</defs>
</svg>
