<svg width="64" height="64" viewBox="0 0 64 64" fill="none" xmlns="http://www.w3.org/2000/svg">
<path fill-rule="evenodd" clip-rule="evenodd" d="M58.2006 31.214C58.0826 31.4596 58.0214 31.7286 58.0214 32.001C58.0214 32.2735 58.0826 32.5424 58.2006 32.788L60.4506 37.515C61.7106 40.155 60.7186 43.316 58.1746 44.702L53.6506 47.162C53.4134 47.2916 53.2088 47.4735 53.0523 47.6939C52.8959 47.9143 52.7916 48.1674 52.7476 48.434L51.8606 53.616C51.3646 56.507 48.7586 58.473 45.9016 58.059L40.8306 57.322C40.5656 57.2834 40.2953 57.3075 40.0413 57.3924C39.7874 57.4774 39.557 57.6208 39.3686 57.811L35.6836 61.468C34.7071 62.4461 33.3826 62.9971 32.0006 63C30.6175 62.9979 29.2918 62.4469 28.3146 61.468L24.6296 57.808C24.4421 57.6187 24.2128 57.476 23.96 57.3916C23.7073 57.3072 23.4382 57.2834 23.1746 57.322L18.1066 58.059C17.8539 58.0961 17.5989 58.1145 17.3436 58.114C14.7606 58.114 12.5846 56.217 12.1416 53.616L11.2546 48.434C11.2109 48.1685 11.1074 47.9165 10.952 47.6968C10.7967 47.4771 10.5934 47.2956 10.3576 47.166L5.82756 44.702C4.6004 44.0222 3.68043 42.898 3.25689 41.5606C2.83335 40.2232 2.93845 38.7743 3.55057 37.512L5.80056 32.785C5.91757 32.5402 5.9783 32.2724 5.9783 32.001C5.9783 31.7297 5.91757 31.4618 5.80056 31.217L3.55057 26.491C2.93927 25.2292 2.8345 23.7811 3.2578 22.4444C3.68111 21.1078 4.60033 19.984 5.82656 19.304L10.3566 16.837C10.8366 16.574 11.1666 16.105 11.2546 15.566L12.1416 10.383C12.6336 7.49505 15.2426 5.52705 18.0996 5.94305L23.1776 6.68005C23.4414 6.71848 23.7105 6.69434 23.9633 6.60957C24.216 6.5248 24.4453 6.38177 24.6326 6.19205L28.3146 2.54405C28.7957 2.05555 29.3691 1.66744 30.0014 1.40222C30.6337 1.13701 31.3123 0.999958 31.998 0.999028C32.6837 0.998098 33.3627 1.1333 33.9957 1.3968C34.6287 1.66031 35.2031 2.04686 35.6856 2.53405L39.3716 6.19805C39.7516 6.58105 40.2916 6.76005 40.8256 6.68005L45.9006 5.94405C48.7576 5.52705 51.3636 7.49505 51.8596 10.386L52.7436 15.562C52.8416 16.116 53.1676 16.579 53.6466 16.837L58.1736 19.304C59.3999 19.9831 60.3195 21.1062 60.743 22.4425C61.1666 23.7788 61.0619 25.2266 60.4506 26.488L58.2006 31.214Z" stroke="#624BFF" stroke-width="2"/>
<path fill-rule="evenodd" clip-rule="evenodd" d="M27.6176 42.502L38.3576 22.9896C38.51 22.7296 38.5868 22.4572 38.5868 22.1762C38.5915 22.0195 38.5646 21.8636 38.5078 21.7182C38.451 21.5728 38.3655 21.4413 38.2568 21.3318C38.1584 21.2269 38.0405 21.1435 37.9103 21.0865C37.78 21.0295 37.6399 21.0001 37.4984 21C37.0208 21 36.6392 21.2625 36.3524 21.785L25.6412 41.2961C25.4888 41.5561 25.4132 41.8285 25.4132 42.1095C25.4081 42.2661 25.4347 42.4221 25.4913 42.5675C25.5479 42.7129 25.6333 42.8445 25.742 42.9539C25.8402 43.059 25.9581 43.1426 26.0884 43.1996C26.2187 43.2567 26.3588 43.2859 26.5004 43.2857C26.978 43.2857 27.35 43.0245 27.6176 42.502ZM24.9536 34.239C26.5196 34.239 27.7412 33.6917 28.6196 32.596C29.498 31.5003 29.9372 29.8771 29.9372 27.7253C29.9372 25.5946 29.498 23.9813 28.6196 22.8844C27.7412 21.7899 26.5196 21.2414 24.9536 21.2414C23.408 21.2414 22.1948 21.7899 21.3176 22.8856C20.438 23.9813 20 25.5946 20 27.7253C20 29.8549 20.438 31.4755 21.3164 32.5787C22.1948 33.6868 23.408 34.2377 24.9536 34.2377V34.239ZM24.9536 32.1887C24.1136 32.1887 23.498 31.8321 23.1068 31.1177C22.7156 30.4046 22.52 29.273 22.52 27.7253C22.52 26.1777 22.7156 25.056 23.108 24.3627C23.498 23.6693 24.1136 23.3227 24.9536 23.3227C25.7936 23.3227 26.4152 23.6743 26.816 24.3775C27.2168 25.082 27.4172 26.1975 27.4172 27.7253C27.4172 29.273 27.2168 30.4046 26.8172 31.1177C26.4152 31.8321 25.7936 32.1887 24.9536 32.1887ZM39.0176 42.9849C40.5812 42.9849 41.804 42.4314 42.6824 41.3258C43.5596 40.2202 44 38.602 44 36.4712C44 34.3405 43.556 32.726 42.668 31.6303C41.78 30.5346 40.5632 29.9873 39.0164 29.9873C37.4504 29.9873 36.2288 30.5346 35.3504 31.6303C34.472 32.726 34.0328 34.3405 34.0328 36.4712C34.0328 38.6218 34.472 40.245 35.3504 41.3407C36.2288 42.4364 37.4504 42.9849 39.0164 42.9849H39.0176ZM39.0164 40.9333C38.1764 40.9333 37.556 40.5768 37.154 39.8636C36.7532 39.1505 36.554 38.0189 36.554 36.4712C36.554 34.9224 36.7532 33.797 37.154 33.0937C37.556 32.388 38.1752 32.0376 39.0164 32.0376C39.8372 32.0376 40.448 32.3954 40.8488 33.1086C41.2496 33.8217 41.45 34.9434 41.45 36.4712C41.45 38.0189 41.2544 39.1505 40.8632 39.8636C40.472 40.5768 39.8564 40.9333 39.0164 40.9333Z" fill="#624BFF"/>
</svg>
