<svg width="120" height="40" viewBox="0 0 120 40" fill="none" xmlns="http://www.w3.org/2000/svg">
<path fill-rule="evenodd" clip-rule="evenodd" d="M1.70711 1.70711C1.89464 1.89464 2 2.149 2 2.41421V20.6972C2 20.8946 1.94156 21.0877 1.83205 21.2519L0.549615 23.1756C0.384968 23.4225 0 23.306 0 23.0092V0.724264C0 0.456993 0.323142 0.323142 0.512132 0.512132L1.70711 1.70711Z" fill="#624BFF"/>
<path fill-rule="evenodd" clip-rule="evenodd" d="M5.74984 3.98315C5.91104 4.16585 6 4.40112 6 4.64477L6 16.3552C6 16.5989 5.91104 16.8342 5.74984 17.0169L4.52495 18.4051C4.34208 18.6123 4 18.483 4 18.2066L4 2.79343C4 2.51704 4.34208 2.38769 4.52495 2.59495L5.74984 3.98315Z" fill="#624BFF"/>
<path fill-rule="evenodd" clip-rule="evenodd" d="M2.59204 24.5808C5.81431 17.5993 12.2826 16.3162 15.0665 16.5018C18.5561 16.7344 21.5651 18.2602 23.2766 20.3698C25.1717 22.7058 26 25.6556 26 27.9998C26 33.6737 22.0339 36.939 19.9553 37.903C17.99 39.0065 15.9492 39.1815 14.2685 39.0015C12.8931 38.8541 11.7159 38.4651 10.9484 38.108C10.698 37.9915 10.6149 37.6856 10.7519 37.4459L11.2481 36.5776C11.3851 36.3379 11.6912 36.2537 11.9448 36.3631C12.5194 36.611 13.4179 36.8989 14.4815 37.0128C15.8732 37.1619 17.4833 37.0071 19.0062 36.1422L19.0453 36.12L19.0862 36.1014C20.6861 35.3742 24 32.688 24 27.9998C24 26.0657 23.3001 23.5734 21.7234 21.6299C20.4148 20.0168 17.9568 18.6989 14.9335 18.4973C12.7174 18.3496 7.18569 19.4006 4.40796 25.4189C3.35156 27.7077 2.08131 33.2669 2.00374 38.5C1.99964 38.7761 1.77614 39 1.5 39H0.5C0.223858 39 -0.000339907 38.7762 0.00353249 38.5001C0.0807642 32.9932 1.41021 27.1414 2.59204 24.5808ZM15.5564 21.0345C17.1962 21.273 18.4882 22.0856 19.2071 22.8045L19.2279 22.8253L19.2474 22.8473C21.0452 24.8698 21.4672 26.961 21.1882 28.7645C20.9171 30.5175 19.997 31.9288 19.2071 32.7187L19.18 32.7459L19.1508 32.7709C17.4987 34.1869 15.6588 34.4828 14.0722 34.2784C12.7634 34.1098 11.6108 33.6018 10.8117 33.095C10.5785 32.9471 10.5343 32.6326 10.7 32.4116L11.3 31.6116C11.4657 31.3907 11.7788 31.347 12.0163 31.488C12.5937 31.8311 13.4157 32.1773 14.3278 32.2948C15.4481 32.4392 16.6798 32.2398 17.8194 31.2777C18.3582 30.7274 19.0194 29.702 19.2118 28.4588C19.3985 27.2515 19.1572 25.768 17.7731 24.1991C17.3187 23.754 16.4201 23.1812 15.2686 23.0137C14.1398 22.8496 12.7039 23.0643 11.114 24.301C9.94611 25.2093 7.1262 29.0586 7.0041 36.5095C6.99957 36.7856 6.77614 37.0118 6.5 37.0118H5.5C5.22386 37.0118 4.9996 36.7856 5.00387 36.5094C5.12606 28.6019 8.11698 24.0983 9.88605 22.7223C11.8961 21.159 13.8769 20.7903 15.5564 21.0345Z" fill="#624BFF"/>
<path d="M41.74 14.8313C42.5533 15.0047 43.2067 15.4113 43.7 16.0513C44.1933 16.678 44.44 17.398 44.44 18.2113C44.44 19.3847 44.0267 20.318 43.2 21.0113C42.3867 21.6913 41.2467 22.0313 39.78 22.0313H33.24V7.99133H39.56C40.9867 7.99133 42.1 8.31799 42.9 8.97133C43.7133 9.62466 44.12 10.5113 44.12 11.6313C44.12 12.458 43.9 13.1447 43.46 13.6913C43.0333 14.238 42.46 14.618 41.74 14.8313ZM36.66 13.6713H38.9C39.46 13.6713 39.8867 13.5513 40.18 13.3113C40.4867 13.058 40.64 12.6913 40.64 12.2113C40.64 11.7313 40.4867 11.3647 40.18 11.1113C39.8867 10.858 39.46 10.7313 38.9 10.7313H36.66V13.6713ZM39.18 19.2713C39.7533 19.2713 40.1933 19.1447 40.5 18.8913C40.82 18.6247 40.98 18.2447 40.98 17.7513C40.98 17.258 40.8133 16.8713 40.48 16.5913C40.16 16.3113 39.7133 16.1713 39.14 16.1713H36.66V19.2713H39.18ZM52.2636 22.1713C50.9436 22.1713 49.7303 21.8647 48.6236 21.2513C47.5303 20.638 46.6569 19.7847 46.0036 18.6913C45.3636 17.5847 45.0436 16.3447 45.0436 14.9713C45.0436 13.598 45.3636 12.3647 46.0036 11.2713C46.6569 10.178 47.5303 9.32466 48.6236 8.71133C49.7303 8.09799 50.9436 7.79133 52.2636 7.79133C53.5836 7.79133 54.7903 8.09799 55.8836 8.71133C56.9903 9.32466 57.8569 10.178 58.4836 11.2713C59.1236 12.3647 59.4436 13.598 59.4436 14.9713C59.4436 16.3447 59.1236 17.5847 58.4836 18.6913C57.8436 19.7847 56.9769 20.638 55.8836 21.2513C54.7903 21.8647 53.5836 22.1713 52.2636 22.1713ZM52.2636 19.0513C53.3836 19.0513 54.2769 18.678 54.9436 17.9313C55.6236 17.1847 55.9636 16.198 55.9636 14.9713C55.9636 13.7313 55.6236 12.7447 54.9436 12.0113C54.2769 11.2647 53.3836 10.8913 52.2636 10.8913C51.1303 10.8913 50.2236 11.258 49.5436 11.9913C48.8769 12.7247 48.5436 13.718 48.5436 14.9713C48.5436 16.2113 48.8769 17.2047 49.5436 17.9513C50.2236 18.6847 51.1303 19.0513 52.2636 19.0513ZM67.7062 22.0313L64.7862 16.7313H63.9662V22.0313H60.5462V7.99133H66.2862C67.3929 7.99133 68.3329 8.18466 69.1062 8.57133C69.8929 8.95799 70.4796 9.49133 70.8662 10.1713C71.2529 10.838 71.4463 11.5847 71.4463 12.4113C71.4463 13.3447 71.1796 14.178 70.6463 14.9113C70.1262 15.6447 69.3529 16.1647 68.3263 16.4713L71.5663 22.0313H67.7062ZM63.9662 14.3113H66.0862C66.7129 14.3113 67.1796 14.158 67.4862 13.8513C67.8063 13.5447 67.9663 13.1113 67.9663 12.5513C67.9663 12.018 67.8063 11.598 67.4862 11.2913C67.1796 10.9847 66.7129 10.8313 66.0862 10.8313H63.9662V14.3113ZM79.9531 22.0313L77.0331 16.7313H76.2131V22.0313H72.7931V7.99133H78.5331C79.6398 7.99133 80.5798 8.18466 81.3531 8.57133C82.1398 8.95799 82.7265 9.49133 83.1131 10.1713C83.4998 10.838 83.6931 11.5847 83.6931 12.4113C83.6931 13.3447 83.4265 14.178 82.8931 14.9113C82.3731 15.6447 81.5998 16.1647 80.5731 16.4713L83.8131 22.0313H79.9531ZM76.2131 14.3113H78.3331C78.9598 14.3113 79.4265 14.158 79.7331 13.8513C80.0531 13.5447 80.2131 13.1113 80.2131 12.5513C80.2131 12.018 80.0531 11.598 79.7331 11.2913C79.4265 10.9847 78.9598 10.8313 78.3331 10.8313H76.2131V14.3113ZM91.68 22.1713C90.36 22.1713 89.1467 21.8647 88.04 21.2513C86.9467 20.638 86.0733 19.7847 85.42 18.6913C84.78 17.5847 84.46 16.3447 84.46 14.9713C84.46 13.598 84.78 12.3647 85.42 11.2713C86.0733 10.178 86.9467 9.32466 88.04 8.71133C89.1467 8.09799 90.36 7.79133 91.68 7.79133C93 7.79133 94.2067 8.09799 95.3 8.71133C96.4067 9.32466 97.2733 10.178 97.9 11.2713C98.54 12.3647 98.86 13.598 98.86 14.9713C98.86 16.3447 98.54 17.5847 97.9 18.6913C97.26 19.7847 96.3933 20.638 95.3 21.2513C94.2067 21.8647 93 22.1713 91.68 22.1713ZM91.68 19.0513C92.8 19.0513 93.6933 18.678 94.36 17.9313C95.04 17.1847 95.38 16.198 95.38 14.9713C95.38 13.7313 95.04 12.7447 94.36 12.0113C93.6933 11.2647 92.8 10.8913 91.68 10.8913C90.5467 10.8913 89.64 11.258 88.96 11.9913C88.2933 12.7247 87.96 13.718 87.96 14.9713C87.96 16.2113 88.2933 17.2047 88.96 17.9513C89.64 18.6847 90.5467 19.0513 91.68 19.0513ZM119.283 7.99133L115.623 22.0313H111.483L109.243 12.7913L106.923 22.0313H102.783L99.2227 7.99133H102.883L104.903 18.2113L107.403 7.99133H111.163L113.563 18.2113L115.603 7.99133H119.283Z" fill="#0F172B"/>
<path d="M35.09 33.9213H37.39V35.0313H33.69V28.0513H35.09V33.9213ZM41.7198 35.1013C41.0665 35.1013 40.4665 34.948 39.9198 34.6413C39.3732 34.3347 38.9398 33.9113 38.6198 33.3713C38.2998 32.8247 38.1398 32.208 38.1398 31.5213C38.1398 30.8413 38.2998 30.2313 38.6198 29.6913C38.9398 29.1447 39.3732 28.718 39.9198 28.4113C40.4665 28.1047 41.0665 27.9513 41.7198 27.9513C42.3798 27.9513 42.9798 28.1047 43.5198 28.4113C44.0665 28.718 44.4965 29.1447 44.8098 29.6913C45.1298 30.2313 45.2898 30.8413 45.2898 31.5213C45.2898 32.208 45.1298 32.8247 44.8098 33.3713C44.4965 33.9113 44.0665 34.3347 43.5198 34.6413C42.9732 34.948 42.3732 35.1013 41.7198 35.1013ZM41.7198 33.8513C42.1398 33.8513 42.5098 33.758 42.8298 33.5713C43.1498 33.378 43.3998 33.1047 43.5798 32.7513C43.7598 32.398 43.8498 31.988 43.8498 31.5213C43.8498 31.0547 43.7598 30.648 43.5798 30.3013C43.3998 29.948 43.1498 29.678 42.8298 29.4913C42.5098 29.3047 42.1398 29.2113 41.7198 29.2113C41.2998 29.2113 40.9265 29.3047 40.5998 29.4913C40.2798 29.678 40.0298 29.948 39.8498 30.3013C39.6698 30.648 39.5798 31.0547 39.5798 31.5213C39.5798 31.988 39.6698 32.398 39.8498 32.7513C40.0298 33.1047 40.2798 33.378 40.5998 33.5713C40.9265 33.758 41.2998 33.8513 41.7198 33.8513ZM50.8114 33.7013H48.0314L47.5714 35.0313H46.1014L48.6114 28.0413H50.2414L52.7514 35.0313H51.2714L50.8114 33.7013ZM50.4314 32.5813L49.4214 29.6613L48.4114 32.5813H50.4314ZM59.8596 35.0313H58.4596L55.2896 30.2413V35.0313H53.8896V28.0413H55.2896L58.4596 32.8413V28.0413H59.8596V35.0313ZM65.7031 30.8713V32.0513H61.4631V30.8713H65.7031ZM67.1332 31.5313C67.1332 30.8447 67.2865 30.2313 67.5932 29.6913C67.9065 29.1447 68.3299 28.7213 68.8632 28.4213C69.4032 28.1147 70.0065 27.9613 70.6732 27.9613C71.4532 27.9613 72.1365 28.1613 72.7232 28.5613C73.3099 28.9613 73.7199 29.5147 73.9532 30.2213H72.3432C72.1832 29.888 71.9565 29.638 71.6632 29.4713C71.3765 29.3047 71.0432 29.2213 70.6632 29.2213C70.2565 29.2213 69.8932 29.318 69.5732 29.5113C69.2599 29.698 69.0132 29.9647 68.8332 30.3113C68.6599 30.658 68.5732 31.0647 68.5732 31.5313C68.5732 31.9913 68.6599 32.398 68.8332 32.7513C69.0132 33.098 69.2599 33.368 69.5732 33.5613C69.8932 33.748 70.2565 33.8413 70.6632 33.8413C71.0432 33.8413 71.3765 33.758 71.6632 33.5913C71.9565 33.418 72.1832 33.1647 72.3432 32.8313H73.9532C73.7199 33.5447 73.3099 34.1013 72.7232 34.5013C72.1432 34.8947 71.4599 35.0913 70.6732 35.0913C70.0065 35.0913 69.4032 34.9413 68.8632 34.6413C68.3299 34.3347 67.9065 33.9113 67.5932 33.3713C67.2865 32.8313 67.1332 32.218 67.1332 31.5313ZM78.589 35.1013C77.9357 35.1013 77.3357 34.948 76.789 34.6413C76.2423 34.3347 75.809 33.9113 75.489 33.3713C75.169 32.8247 75.009 32.208 75.009 31.5213C75.009 30.8413 75.169 30.2313 75.489 29.6913C75.809 29.1447 76.2423 28.718 76.789 28.4113C77.3357 28.1047 77.9357 27.9513 78.589 27.9513C79.249 27.9513 79.849 28.1047 80.389 28.4113C80.9357 28.718 81.3657 29.1447 81.679 29.6913C81.999 30.2313 82.159 30.8413 82.159 31.5213C82.159 32.208 81.999 32.8247 81.679 33.3713C81.3657 33.9113 80.9357 34.3347 80.389 34.6413C79.8423 34.948 79.2423 35.1013 78.589 35.1013ZM78.589 33.8513C79.009 33.8513 79.379 33.758 79.699 33.5713C80.019 33.378 80.269 33.1047 80.449 32.7513C80.629 32.398 80.719 31.988 80.719 31.5213C80.719 31.0547 80.629 30.648 80.449 30.3013C80.269 29.948 80.019 29.678 79.699 29.4913C79.379 29.3047 79.009 29.2113 78.589 29.2113C78.169 29.2113 77.7957 29.3047 77.469 29.4913C77.149 29.678 76.899 29.948 76.719 30.3013C76.539 30.648 76.449 31.0547 76.449 31.5213C76.449 31.988 76.539 32.398 76.719 32.7513C76.899 33.1047 77.149 33.378 77.469 33.5713C77.7957 33.758 78.169 33.8513 78.589 33.8513ZM91.0105 28.0513V35.0313H89.6105V30.4913L87.7405 35.0313H86.6805L84.8005 30.4913V35.0313H83.4005V28.0513H84.9905L87.2105 33.2413L89.4305 28.0513H91.0105ZM97.6847 30.2113C97.6847 30.5847 97.5947 30.9347 97.4147 31.2613C97.2414 31.588 96.9647 31.8513 96.5847 32.0513C96.2114 32.2513 95.738 32.3513 95.1647 32.3513H93.9947V35.0313H92.5947V28.0513H95.1647C95.7047 28.0513 96.1647 28.1447 96.5447 28.3313C96.9247 28.518 97.208 28.7747 97.3947 29.1013C97.588 29.428 97.6847 29.798 97.6847 30.2113ZM95.1047 31.2213C95.4914 31.2213 95.778 31.1347 95.9647 30.9613C96.1514 30.7813 96.2447 30.5313 96.2447 30.2113C96.2447 29.5313 95.8647 29.1913 95.1047 29.1913H93.9947V31.2213H95.1047ZM103.159 33.7013H100.379L99.9187 35.0313H98.4487L100.959 28.0413H102.589L105.099 35.0313H103.619L103.159 33.7013ZM102.779 32.5813L101.769 29.6613L100.759 32.5813H102.779ZM112.207 35.0313H110.807L107.637 30.2413V35.0313H106.237V28.0413H107.637L110.807 32.8413V28.0413H112.207V35.0313ZM119.34 28.0513L116.98 32.6013V35.0313H115.58V32.6013L113.21 28.0513H114.79L116.29 31.2413L117.78 28.0513H119.34Z" fill="#778191"/>
</svg>
